<?xml version="1.0" encoding="utf-8"?>
<!-- Generator: Adobe Illustrator 18.0.0, SVG Export Plug-In . SVG Version: 6.00 Build 0)  -->
<!DOCTYPE svg PUBLIC "-//W3C//DTD SVG 1.1//EN" "http://www.w3.org/Graphics/SVG/1.1/DTD/svg11.dtd">
<svg version="1.1" id="Calque_1" xmlns="http://www.w3.org/2000/svg" xmlns:xlink="http://www.w3.org/1999/xlink" x="0px" y="0px"
	 viewBox="0 0 512 512" enable-background="new 0 0 512 512" xml:space="preserve">
<g>
	<polygon fill="#1B2530" points="136.7,269.8 204.5,338.7 298.2,362.8 244.4,269.8 	"/>
	<polygon fill="#1B2530" points="270.6,254.8 324.4,347.7 350.4,254.8 324.4,161.8 	"/>
	<path fill="#1B2530" d="M256,26.5c-127,0-230,103-230,230s103,230,230,230s230-103,230-230S383,26.5,256,26.5z M375,223.1
		l-18.6,31.6l18.6,31.6l-32.8,122.1l-122.5-32.7l-18.2-31.9l-36.8,0.3h0L75,254.8l89.7-89.4l36.8,0.3l18.1-31.9L342.2,101L375,223.1
		L375,223.1z"/>
	<polygon fill="#1B2530" points="298.2,146.7 204.5,170.8 136.7,239.7 244.4,239.7 	"/>
</g>
</svg>
