<?xml version="1.0" encoding="UTF-8" standalone="no"?>
<!DOCTYPE svg  PUBLIC '-//W3C//DTD SVG 1.1//EN'  'http://www.w3.org/Graphics/SVG/1.1/DTD/svg11.dtd'>
<svg xmlns="http://www.w3.org/2000/svg" version="1.1">
<defs>
<font id="MarketDeco" horiz-adv-x="240">
<font-face ascent="1638" units-per-em="2048" font-family="Market Deco" font-weight="400" bbox="120 -351 1661 1866" underline-position="-442" underline-thickness="150" descent="-410" x-height="1479" unicode-range="U+0020-F005" panose-1="2 0 0 0 0 0 0 0 0 0" cap-height="1472"/>
<missing-glyph/>
<glyph glyph-name="space" unicode=" " horiz-adv-x="700"/>
<glyph glyph-name="space" unicode=" " horiz-adv-x="700"/>
<glyph glyph-name="exclam" unicode="!" horiz-adv-x="432" d="M120 224h192v-224h-192v224zM120 1472h192v-1024h-192v1024z"/>
<glyph glyph-name="quotedbl" unicode='&quot;' horiz-adv-x="1008" d="M680 1636h208v-29l-208 -503h-118v30zM238 1635h208v-30l-208 -502h-118v30z"/>
<glyph glyph-name="numbersign" unicode="#" horiz-adv-x="1328" d="M568 896l-37 -320h248l40 320h-251zM483 1504h160l-59 -480h254l61 480h160l-57 -480h206v-128h-226l-36 -320h198v-128h-224l-64 -480h-160l64 480h-256l-64 -480h-160l64 480h-224v128h251l37 320h-224v128h240z"/>
<glyph glyph-name="dollar" unicode="$" horiz-adv-x="935" d="M562 320q55 62 55 147q0 72 -50 117q-2 2 -5 4v-268zM392 1163q-9 -6 -17 -14q-60 -54 -60 -126q2 -70 50 -110q12 -10 27 -21v271zM562 803q41 -21 71 -37q45 -26 87 -66t68 -100t27 -142q0 -75 -32 -144t-89 -122q-58 -53 -132 -83v-109h-170v78q-78 2 -137 22 q-65 21 -135 73v222q39 -41 64 -59t61 -36q36 -20 80 -33q34 -11 67 -13v437q-56 28 -94 53q-45 27 -86 67q-42 41 -66 95t-24 126q3 72 35 134t87 110t126 75q11 4 22 7v116h170v-100q34 -5 64 -13q48 -15 106 -51v-186q-31 20 -45 26t-39 20t-58 25l-28 6v-398z"/>
<glyph glyph-name="percent" unicode="%" horiz-adv-x="1444" d="M325 1290q-40 0 -66 -45q-16 -29 -25.5 -72.5t-9.5 -90.5q0 -46 9 -90t26 -74q26 -45 66 -45t65 45q16 30 26 74t10 90q0 47 -10 90.5t-26 72.5q-26 45 -65 45zM325 1415q39 0 76 -22.5t64 -61.5q31 -45 48 -109.5t17 -140.5t-17 -140t-48 -109q-27 -39 -64 -61.5 t-76 -22.5t-76 22.5t-64 61.5q-32 45 -48.5 109t-16.5 140t16.5 140.5t48.5 109.5q28 39 64.5 61.5t75.5 22.5zM1119 184q40 0 65 45q17 29 26.5 72.5t9.5 90.5q0 46 -9.5 90t-26.5 74q-25 45 -65 45t-65 -45q-16 -30 -26 -74t-10 -90q0 -47 10 -90.5t26 -72.5 q26 -45 65 -45zM1119 59q-39 0 -76 22.5t-64 61.5q-31 45 -48 109.5t-17 140.5t17 140t48 109q27 39 64 61.5t76 22.5t76 -22.5t64 -61.5q32 -45 48.5 -109t16.5 -140t-16.5 -140.5t-48.5 -109.5q-28 -39 -64.5 -61.5t-75.5 -22.5zM526 45l-168 1l595 1383l168 -1z"/>
<glyph glyph-name="ampersand" unicode="&amp;" horiz-adv-x="1278" d="M1084 673q-8 -30 -15 -51.5t-16 -43.5t-20 -48t-26.5 -62t-24.5 -57t-17 -33.5t-15 -23.5t-17 -25l225 -321h-267l-102 145q-155 -161 -328 -161q-72 0 -134 26t-107.5 72.5t-72.5 109.5t-27 135q0 53 14 102t46 97t82.5 99.5t124.5 111.5q-126 167 -126 317 q0 58 24 108.5t65 87.5t96.5 59t119.5 22q138 0 220.5 -75t82.5 -196q0 -68 -26 -126t-90 -131q-31 -34 -48 -51t-45 -41l143 -201q38 58 72 155h209zM558 886l46 50q54 54 54 128q0 40 -26 65.5t-68 25.5q-44 0 -70.5 -26.5t-26.5 -70.5q0 -34 17.5 -72t65.5 -108zM500 588 q-93 -76 -128 -130t-35 -113q0 -64 42 -108t104 -44q91 0 195 128z"/>
<glyph glyph-name="quotesingle" unicode="&apos;" horiz-adv-x="566" d="M238 1635h208v-30l-208 -502h-118v30z"/>
<glyph glyph-name="parenleft" unicode="(" horiz-adv-x="784" d="M536 1504l128 -160q-320 -212 -336 -551v-114q16 -339 336 -551l-128 -160q-416 292 -416 768t416 768z"/>
<glyph glyph-name="parenright" unicode=")" horiz-adv-x="784" d="M664 736q0 -476 -416 -768l-128 160q320 212 336 551v114q-16 339 -336 551l128 160q416 -292 416 -768z"/>
<glyph glyph-name="asterisk" unicode="*" horiz-adv-x="878" d="M500 1527v-247l12 -12l198 118l48 -72l-168 -130v-64l168 -120l-48 -85l-198 124l-12 -13v-264h-109v264l-13 13l-203 -124l-55 82l182 123v64l-182 130l55 72l203 -118l13 12v247h109z"/>
<glyph glyph-name="plus" unicode="+" horiz-adv-x="1096" d="M445 1042h207v-325h324v-206h-324v-325h-207v325h-325v206h325v325z"/>
<glyph glyph-name="comma" unicode="," horiz-adv-x="592" d="M248 225h224v-32l-224 -544h-128v32z"/>
<glyph glyph-name="hyphen" unicode="-" horiz-adv-x="903" d="M120 800h663v-174h-663v174z"/>
<glyph glyph-name="hyphen" unicode="­" horiz-adv-x="903" d="M120 800h663v-174h-663v174z"/>
<glyph glyph-name="period" unicode="." horiz-adv-x="432" d="M120 225h192v-224h-192v224z"/>
<glyph glyph-name="slash" unicode="/" horiz-adv-x="1008" d="M344 -31h-224l544 1536h224z"/>
<glyph glyph-name="zero" unicode="0" horiz-adv-x="1151" d="M575 1255q-90 0 -150 -111q-36 -72 -58 -180t-22 -224q-1 -114 21 -222t59 -181q60 -112 150 -112q91 0 151 112q36 73 58 181t22 222q0 116 -22 224t-58 180q-61 111 -151 111zM576 1480q86 0 168 -49t143 -137q70 -98 107 -242t37 -314q1 -168 -37 -311t-107 -241 q-60 -88 -143 -137t-168 -49q-86 0 -169 49t-143 137q-68 98 -106 241t-38 311q0 170 37 314t107 242q62 88 144 137t168 49z"/>
<glyph glyph-name="one" unicode="1" horiz-adv-x="626" d="M122 1479h384v-1479h-225v1248h-161z"/>
<glyph glyph-name="two" unicode="2" horiz-adv-x="1055" d="M158 1315q70 62 154 107q125 67 242 67q10 -1 21 -1q127 -6 210 -75q82 -69 110 -194q13 -58 13 -124q0 -52 -8 -108q-32 -333 -492 -767h527v-220h-815v220q515 510 557 767q7 36 7 67q0 26 -5 49q-16 71 -62 110q-40 33 -99 33h-20q-72 -6 -148 -48q-75 -41 -131 -105 l-61 219v3z"/>
<glyph glyph-name="three" unicode="3" horiz-adv-x="1136" d="M463 907h32h4q5 0 11 1q40 3 77 23q45 24 69 66t24 87q0 46 -25 89t-69 66t-91 23q-48 0 -92 -23q-25 -13 -43 -32l-1 -1l-219 80l2 4l1 1q55 95 155 147t205 51q103 1 203 -51t156 -148t57 -199q0 -103 -55 -197q-23 -39 -52 -71q87 -58 140 -148q64 -111 64 -231 q0 -122 -65 -234t-181 -170q-116 -60 -240 -60q-122 0 -238 60q-107 54 -171 153q-1 1 -1 2l188 118q35 -56 94 -87q61 -33 128 -33q66 1 129 33t97 92t35 125q-1 65 -35 124t-96 93t-130 33h-67v214z"/>
<glyph glyph-name="four" unicode="4" horiz-adv-x="1102" d="M342 480h288l-1 535zM662 1472h192v-992h128v-224h-128v-256h-224v256h-509l-1 212z"/>
<glyph glyph-name="five" unicode="5" horiz-adv-x="1150" d="M334 663h-121l-1 816h694v-232h-474v-354q55 13 112 13q122 0 238 -60t182 -172t66 -233t-64 -231t-180 -171t-242 -61t-242 61t-179 172q-2 1 -3 3l187 125q5 -10 11 -20q34 -60 96 -93t130 -33t130 33q62 32 96 92t35 124q1 66 -35 126t-98 92t-128 32q-57 0 -112 -24 l-11 -5q-2 -1 -23 -1q-22 0 -64 1z"/>
<glyph glyph-name="six" unicode="6" horiz-adv-x="1215" d="M123 445q-3 390 500 1040h276q-307 -376 -412 -584q-3 -5 -5 -9q62 16 127 16q126 0 242 -62t180 -172t64 -230q0 -122 -65 -234t-181 -171q-116 -60 -240 -60q-122 0 -238 60q-116 59 -182 171t-66 234v1zM870 443q0 63 -34 123t-97 93q-62 33 -130 33t-130 -33 q-63 -33 -97 -93t-34 -123q0 -66 36 -126t96 -92q62 -32 129 -32t129 32t98 92q34 60 34 126z"/>
<glyph glyph-name="seven" unicode="7" horiz-adv-x="1022" d="M120 1488h782v-228l-398 -1260h-256l384 1250h-512v238z"/>
<glyph glyph-name="eight" unicode="8" horiz-adv-x="1212" d="M863 836q103 -59 163 -161q66 -112 66 -234q0 -121 -64 -231t-180 -171t-242 -61t-242 61t-180 171t-64 231q0 122 65 234q60 102 163 161q-48 40 -80 96q-52 88 -52 185t52 187t145 137q93 48 193 48q97 0 190 -48q93 -47 146 -137t53 -187t-51 -185q-32 -56 -81 -96z M433 1109q0 -41 23 -81t64 -62t86 -22q44 0 86 22t64 62t22 81q0 43 -24 83t-64 62t-84 21q-44 1 -86 -21t-64 -62q-23 -40 -23 -83zM345 442q1 -64 35 -124t96 -92q62 -34 130 -34t130 34t96 92q34 60 35 124q1 66 -35 126t-98 92t-128 32q-68 0 -130 -32t-96 -92t-35 -126 z"/>
<glyph glyph-name="nine" unicode="9" horiz-adv-x="1215" d="M333 0q293 361 395 564q3 4 5 8q-62 -16 -127 -16q-126 0 -242 62t-180 172t-64 230q0 122 65 234t181 171q116 60 240 60q122 0 238 -60q116 -59 182 -171t66 -234v-1q3 -384 -484 -1019h-275zM345 1021q1 -63 35 -123t96 -93t130 -33t130 33t96 93t35 123q1 66 -35 126 t-98 92t-128 32q-68 0 -130 -32t-96 -92t-35 -126z"/>
<glyph glyph-name="colon" unicode=":" horiz-adv-x="432" d="M120 225h192v-224h-192v224zM120 705h192v-224h-192v224z"/>
<glyph glyph-name="less" unicode="&lt;" horiz-adv-x="1136" d="M120 413v198l896 413v-224l-608 -288l608 -288v-224z"/>
<glyph glyph-name="equal" unicode="=" horiz-adv-x="1136" d="M120 430h896v-174h-896v174zM120 800h896v-174h-896v174z"/>
<glyph glyph-name="greater" unicode="&gt;" horiz-adv-x="1136" d="M120 0v224l608 288l-608 288v224l896 -413v-198z"/>
<glyph glyph-name="question" unicode="?" horiz-adv-x="1042" d="M637 224v-224h-220v224h220zM655 417h-256v160q0 213 143 330.5t145 242.5q-20 131 -147.5 131t-236.5 -192l-183 82q53 234 230 320q96 46 197 46q85 0 172 -32q192 -72 192 -335q1 -16 1 -31q0 -204 -131 -285t-131 -330q0 -50 5 -107z"/>
<glyph glyph-name="at" unicode="@" horiz-adv-x="1667" d="M1463 312q-36 -44 -61.5 -75.5t-48.5 -54.5t-46.5 -40.5t-50.5 -36.5q-159 -105 -387 -105q-163 0 -300.5 55.5t-237 155t-155.5 235.5t-56 297q0 164 56 302.5t156.5 239.5t237 159t299.5 58q146 0 270.5 -47t215.5 -129.5t141.5 -196t50.5 -248.5q0 -188 -92 -328.5 t-256 -205.5q-72 -31 -125 -31q-108 0 -108 113q-83 -104 -209 -104q-68 0 -125 26t-97.5 73t-62.5 112.5t-22 143.5q0 96 29.5 180t82.5 145t124 96t153 35q165 0 237 -140l23 114h150l-95 -567q-4 -18 -6 -30t-2 -18v-11q-5 -37 29 -37q30 0 76.5 32.5t88.5 85.5 q49 56 73 130.5t24 152.5q0 116 -42 214t-116 168.5t-176.5 111t-225.5 40.5q-129 0 -241 -49t-194.5 -134t-129 -201.5t-46.5 -249.5q0 -135 47.5 -249.5t130 -199.5t194.5 -133t243 -48q138 0 252 56q23 13 43 25t40.5 27.5t42.5 35t52 50.5h152zM753 443q11 -1 22 -1 q85 0 152.5 81t82.5 226q2 23 2 43q0 78 -36.5 137t-118.5 68q-10 1 -19 1q-39 0 -80.5 -18.5t-78.5 -57.5t-61 -96t-31 -124q-2 -21 -2 -40q0 -81 41 -145.5t127 -73.5z"/>
<glyph glyph-name="A" unicode="A" horiz-adv-x="1180" d="M476 468h228l-113 477zM658 1487l402 -1492h-229l-63 236h-356l-63 -236h-229l402 1492h136z"/>
<glyph glyph-name="B" unicode="B" horiz-adv-x="1144" d="M344 723v-337v-162h221q97 0 166 74t69 176t-69 176t-166 73h-221zM120 0v1472h341q141 0 240 -99t99 -239q0 -138 -95 -236q102 -32 185 -114q134 -135 134 -325q0 -191 -134 -325t-325 -134h-445zM344 997h117q47 1 81 37t34 89t-34 89t-81 36h-117v-251z"/>
<glyph glyph-name="C" unicode="C" horiz-adv-x="1275" d="M1155 308v-256q-130 -52 -278 -52q-158 0 -295 58t-240 159q-102 101 -162 235t-60 288t60 290t162 236q103 100 240 158t295 58q148 0 278 -51v-259q-37 23 -78 40q-94 39 -200 39q-107 0 -201 -39q-94 -38 -164 -108t-110 -164t-40 -200t40 -200t110 -164t164 -108 q94 -40 201 -40q106 0 200 40q41 17 78 40z"/>
<glyph glyph-name="D" unicode="D" horiz-adv-x="1247" d="M344 1249v-1025h47q213 0 363 150t150 362q0 213 -150 363t-363 150h-47zM120 0v1472h271q305 0 521 -216t215 -520q1 -304 -215 -520t-521 -216h-271z"/>
<glyph glyph-name="E" unicode="E" horiz-adv-x="922" d="M120 1472h682v-224h-457v-400h457v-224h-457v-400h457v-224h-682v1472z"/>
<glyph glyph-name="F" unicode="F" horiz-adv-x="922" d="M120 1472h682v-224h-457v-400h457v-224h-457v-624h-225v1472z"/>
<glyph glyph-name="G" unicode="G" horiz-adv-x="1275" d="M963 235v389h-155v224h347v-796q-130 -52 -278 -52q-158 0 -295 58t-240 159q-102 101 -162 235t-60 288t60 290t162 236q103 100 240 158t295 58q148 0 278 -51v-259q-37 23 -78 40q-94 39 -200 39q-107 0 -201 -39q-94 -38 -164 -108t-110 -164t-40 -200t40 -200 t110 -164t164 -108q94 -40 201 -40q44 0 86 7z"/>
<glyph glyph-name="H" unicode="H" horiz-adv-x="1206" d="M120 1472h224v-624h518v624h224v-1472h-224v624h-518v-624h-224v1472z"/>
<glyph glyph-name="I" unicode="I" horiz-adv-x="464" d="M120 1472h224v-1472h-224v1472z"/>
<glyph glyph-name="J" unicode="J" horiz-adv-x="899" d="M120 286q118 -69 211 -69t158.5 66t65.5 159v1031h224v-1031q0 -186 -131 -317.5t-317 -131.5q-113 0 -211 50v243z"/>
<glyph glyph-name="K" unicode="K" horiz-adv-x="1140" d="M1020 1474l-334 -572l311 -902h-239l-222 645l-191 -326v-319l-225 2v1472h225v-712l416 712h259z"/>
<glyph glyph-name="L" unicode="L" horiz-adv-x="927" d="M120 1472h225v-1248h462v-224h-687v1472z"/>
<glyph glyph-name="M" unicode="M" horiz-adv-x="1196" d="M889 1476h187v-1478h-225v715l-253 -675l-254 685v-723h-224v1476h187l291 -792z"/>
<glyph glyph-name="N" unicode="N" horiz-adv-x="1152" d="M866 0l-521 914v-914h-225v1476h206l482 -886v890h224v-1480h-166z"/>
<glyph glyph-name="O" unicode="O" horiz-adv-x="1753" d="M362 740q0 -106 40 -200t110 -164t164 -108q94 -40 201 -40q106 0 200 40q93 40 163 108q70 70 110 164t40 200t-40 200t-110 164t-163 108q-94 39 -200 39q-107 0 -201 -39q-94 -38 -164 -108t-110 -164t-40 -200zM1633 740q1 -154 -59 -288t-163 -235t-240 -159 t-294 -58q-158 0 -295 58t-240 159q-102 101 -162 235t-60 288t60 290t162 236q103 100 240 158t295 58q157 0 294 -58t240 -158t163 -236t59 -290z"/>
<glyph glyph-name="P" unicode="P" horiz-adv-x="1007" d="M344 1255v-624q19 -3 40 -3q123 0 209.5 92t86.5 222t-86.5 221.5t-209.5 91.5h-40zM344 411v-409h-224v1472h224h40q209 0 356 -156t147 -376q0 -221 -147 -377t-356 -156q-20 0 -40 2z"/>
<glyph glyph-name="Q" unicode="Q" horiz-adv-x="1766" d="M1399 205l247 -289h-280l-141 168q-26 -14 -54 -25q-137 -59 -294 -59q-158 0 -295 58t-240 159q-102 101 -162 235t-60 288t60 290t162 236q103 100 240 158t295 58q157 0 294 -58t240 -158t163 -236t59 -290q1 -154 -59 -288t-163 -235zM1072 266l-214 255h271 l118 -138q65 67 103 157q40 93 40 200q0 106 -40 200t-110 164t-163 108q-94 39 -200 39q-107 0 -201 -39q-94 -38 -164 -108t-110 -164t-40 -200t40 -200t110 -164t164 -108q94 -40 201 -40q103 0 195 38z"/>
<glyph glyph-name="R" unicode="R" horiz-adv-x="1050" d="M344 1253v-622q19 -3 40 -3q123 0 209.5 92t86.5 222t-86.5 221.5t-209.5 91.5q-20 0 -40 -2zM344 411v-409h-224v1472h224v-1q20 1 40 1q209 0 356 -156t147 -376q0 -221 -147 -377q-37 -39 -77 -68l267 -499h-240l-222 418q-41 -7 -84 -7q-20 0 -40 2z"/>
<glyph glyph-name="S" unicode="S" horiz-adv-x="1037" d="M447 -2q-95 0 -169 24t-158 86v275q52 -55 80 -75t68 -41q40 -22 90 -37q49 -15 97 -15q99 1 163 69t63 162q0 77 -54 125t-177 110q-74 38 -125 69t-98 77q-47 45 -76 109t-29 150q4 84 41 156t100 128q63 54 143 84t170 30q67 -2 122 -18t125 -60v-231q-41 29 -57 35 t-44 22t-66 26q-38 11 -80 11q-94 -1 -159 -59t-65 -136q2 -72 54 -116t170 -98q80 -38 130 -67t100 -75q49 -46 79 -116t32 -166q0 -88 -37 -168t-103 -140q-65 -62 -151 -96t-179 -34z"/>
<glyph glyph-name="T" unicode="T" horiz-adv-x="1200" d="M120 1480h960v-232h-368v-1248h-224v1248h-368v232z"/>
<glyph glyph-name="U" unicode="U" horiz-adv-x="1137" d="M793 449v1031h224v-1031q0 -186 -131 -317.5t-317 -131.5t-317.5 131.5t-131.5 317.5v1031h224v-1031q0 -93 66 -159t159 -66t158.5 66t65.5 159z"/>
<glyph glyph-name="V" unicode="V" horiz-adv-x="1430" d="M813 -2h-195l-498 1481h250l345 -1040l345 1040h250z"/>
<glyph glyph-name="W" unicode="W" horiz-adv-x="1698" d="M522 0l-402 1429h234l222 -793l253 781l4 12l16 -5l16 5l4 -12l253 -782l222 794h234l-402 -1429h-83l-244 751l-244 -751h-83z"/>
<glyph glyph-name="X" unicode="X" horiz-adv-x="1389" d="M842 768l427 -767l-268 -1l-303 512l-296 -512h-282l434 768l-408 714h268l284 -490l278 490h281z"/>
<glyph glyph-name="Y" unicode="Y" horiz-adv-x="1269" d="M120 1479h237l278 -656l277 656h237l-386 -919v-560h-257v560z"/>
<glyph glyph-name="Z" unicode="Z" horiz-adv-x="1158" d="M154 1479h869v-190l-576 -1064h591v-225h-918v196l552 1058h-518v225z"/>
<glyph glyph-name="bracketleft" unicode="[" horiz-adv-x="624" d="M120 1480h384v-180h-180v-1120h180v-180h-384v1480z"/>
<glyph glyph-name="backslash" unicode="\" horiz-adv-x="1040" d="M120 1505h192l608 -1536h-192z"/>
<glyph glyph-name="bracketright" unicode="]" horiz-adv-x="624" d="M120 1480h384v-1480h-384v180h180v1120h-180v180z"/>
<glyph glyph-name="asciicircum" unicode="^" horiz-adv-x="950" d="M563 1564l267 -512h-171l-184 321l-184 -321h-171l267 512h176z"/>
<glyph glyph-name="underscore" unicode="_" horiz-adv-x="1615" d="M120 -148h1375v-108h-1375v108z"/>
<glyph glyph-name="grave" unicode="`" horiz-adv-x="530" d="M410 1183v-27h-105l-185 452v27h185z"/>
<glyph glyph-name="a" unicode="a" horiz-adv-x="1427" d="M525 423h378l-189 491zM439 199l-79 -204h-240l594 1544l593 -1544h-240l-78 204h-550z"/>
<glyph glyph-name="b" unicode="b" horiz-adv-x="1144" d="M344 723v-337v-162h221q97 0 166 73.5t69 176.5q0 102 -69 175.5t-166 73.5h-221zM120 0v1472h341q141 0 240 -99t99 -239q0 -138 -95 -236q102 -32 185 -114q134 -135 134 -325t-134.5 -324.5t-324.5 -134.5h-445zM344 997h117q48 0 81.5 36.5t33.5 89.5 q0 52 -33.5 88.5t-81.5 36.5h-117v-251z"/>
<glyph glyph-name="c" unicode="c" horiz-adv-x="1275" d="M1155 308v-256q-130 -52 -278 -52q-158 0 -295 58t-240 159q-102 101 -162 235t-60 288t60 290t162 236q103 100 240 158t295 58q148 0 278 -51v-259q-37 23 -78 40q-94 39 -200 39q-107 0 -201 -39q-94 -38 -164 -108t-110 -164t-40 -200t40 -200t110 -164t164 -108 q94 -40 201 -40q106 0 200 40q41 17 78 40z"/>
<glyph glyph-name="d" unicode="d" horiz-adv-x="1247" d="M344 1249v-1025h47q212 0 362.5 150t150.5 362q0 213 -150.5 363t-362.5 150h-47zM120 0v1472h271q305 0 520.5 -215.5t215.5 -520.5q0 -304 -215.5 -520t-520.5 -216h-271z"/>
<glyph glyph-name="e" unicode="e" horiz-adv-x="922" d="M120 1472h682v-224h-457v-544h457v-224h-457v-256h457v-224h-682v1472z"/>
<glyph glyph-name="f" unicode="f" horiz-adv-x="922" d="M120 1472h682v-224h-457v-544h457v-224h-457v-480h-225v1472z"/>
<glyph glyph-name="g" unicode="g" horiz-adv-x="1275" d="M963 235v245h-155v224h347v-652q-130 -52 -278 -52q-158 0 -295 58t-240 159q-102 101 -162 235t-60 288t60 290t162 236q103 100 240 158t295 58q148 0 278 -51v-259q-37 23 -78 40q-94 39 -200 39q-107 0 -201 -39q-94 -38 -164 -108t-110 -164t-40 -200t40 -200 t110 -164t164 -108q94 -40 201 -40q44 0 86 7z"/>
<glyph glyph-name="h" unicode="h" horiz-adv-x="1206" d="M1086 0h-226v480h-514v-480h-226v1480h226v-772h514v772h226v-1480z"/>
<glyph glyph-name="i" unicode="i" horiz-adv-x="464" d="M120 1480h224v-1480h-224v1480z"/>
<glyph glyph-name="j" unicode="j" horiz-adv-x="899" d="M120 286q118 -69 211 -69t158.5 66t65.5 159v1031h224v-1031q0 -186 -131 -317.5t-317 -131.5q-113 0 -211 50v243z"/>
<glyph glyph-name="k" unicode="k" horiz-adv-x="1140" d="M1020 1474l-334 -572l311 -902h-239l-222 645l-191 -326v-319l-225 2v1472h225v-712l416 712h259z"/>
<glyph glyph-name="l" unicode="l" horiz-adv-x="976" d="M120 1472h225v-1248h511v-224h-736v1472z"/>
<glyph glyph-name="m" unicode="m" horiz-adv-x="1352" d="M676 688l332 509l224 343v-1540h-224v787l-332 -509l-332 509v-787h-224v1540l224 -343z"/>
<glyph glyph-name="n" unicode="n" horiz-adv-x="1147" d="M803 614v866h224v-1545l-683 924v-859h-224v1540z"/>
<glyph glyph-name="o" unicode="o" horiz-adv-x="1753" d="M362 740q0 -106 40 -200t110 -164t164 -108q94 -40 201 -40q106 0 200 40q93 40 163 108q70 70 110 164t40 200t-40 200t-110 164t-163 108q-94 39 -200 39q-107 0 -201 -39q-94 -38 -164 -108t-110 -164t-40 -200zM1633 740q1 -154 -59 -288t-163 -235t-240 -159 t-294 -58q-158 0 -295 58t-240 159q-102 101 -162 235t-60 288t60 290t162 236q103 100 240 158t295 58q157 0 294 -58t240 -158t163 -236t59 -290z"/>
<glyph glyph-name="p" unicode="p" horiz-adv-x="1065" d="M344 537h17q150 0 256 106t106 256t-106 256t-256 106h-17v-724zM344 315v-315h-224v1482h241q242 0 413 -171t171 -412q0 -242 -171 -413t-413 -171h-17z"/>
<glyph glyph-name="q" unicode="q" horiz-adv-x="1766" d="M1399 205l247 -289h-280l-141 168q-26 -14 -54 -25q-137 -59 -294 -59q-158 0 -295 58t-240 159q-102 101 -162 235t-60 288t60 290t162 236q103 100 240 158t295 58q157 0 294 -58t240 -158t163 -236t59 -290q1 -154 -59 -288t-163 -235zM1072 266l-214 255h271 l118 -138q65 67 103 157q40 93 40 200q0 106 -40 200t-110 164t-163 108q-94 39 -200 39q-107 0 -201 -39q-94 -38 -164 -108t-110 -164t-40 -200t40 -200t110 -164t164 -108q94 -40 201 -40q103 0 195 38z"/>
<glyph glyph-name="r" unicode="r" horiz-adv-x="1065" d="M720 438l210 -440h-240l-159 341q-80 -24 -170 -24h-17v-315h-224v1482h241q242 0 413 -171t171 -412q0 -242 -171 -413q-26 -26 -54 -48zM344 537h17q150 0 256 106t106 256t-106 256t-256 106h-17v-724z"/>
<glyph glyph-name="s" unicode="s" horiz-adv-x="1037" d="M447 -2q-95 0 -169 24t-158 86v275q52 -55 80 -75t68 -41q40 -22 90 -37q49 -15 97 -15q99 1 163 69t63 162q0 77 -54 125t-177 110q-74 38 -125 69t-98 77q-47 45 -76 109t-29 150q4 84 41 156t100 128q63 54 143 84t170 30q67 -2 122 -18t125 -60v-231q-41 29 -57 35 t-44 22t-66 26q-38 11 -80 11q-94 -1 -159 -59t-65 -136q2 -72 54 -116t170 -98q80 -38 130 -67t100 -75q49 -46 79 -116t32 -166q0 -88 -37 -168t-103 -140q-65 -62 -151 -96t-179 -34z"/>
<glyph glyph-name="t" unicode="t" horiz-adv-x="1200" d="M120 1480h960v-232h-368v-1240h-224v1240h-368v232z"/>
<glyph glyph-name="u" unicode="u" horiz-adv-x="1137" d="M793 449v1031h224v-1031q0 -186 -131 -317.5t-317 -131.5t-317.5 131.5t-131.5 317.5v1031h224v-1031q0 -93 66 -159t159 -66t158.5 66t65.5 159z"/>
<glyph glyph-name="v" unicode="v" horiz-adv-x="1427" d="M1307 1480l-593 -1545l-594 1545h240l354 -920l353 920h240z"/>
<glyph glyph-name="w" unicode="w" horiz-adv-x="1781" d="M355 1479l259 -809l277 868l277 -868l258 809h235l-493 -1543l-277 866l-277 -866l-494 1543h235z"/>
<glyph glyph-name="x" unicode="x" horiz-adv-x="1389" d="M1255 1479l-413 -711l427 -767l-268 -1l-303 512l-296 -512h-282l434 768l-406 711h268l282 -487l276 487h281z"/>
<glyph glyph-name="y" unicode="y" horiz-adv-x="1269" d="M120 1479h237l278 -836l277 836h237l-386 -1099v-380h-257v380z"/>
<glyph glyph-name="z" unicode="z" horiz-adv-x="1158" d="M154 1479h869v-190l-576 -1064h591v-225h-918v196l552 1058h-518v225z"/>
<glyph glyph-name="braceleft" unicode="{" horiz-adv-x="752" d="M632 1379h-96q-96 0 -96 -121v-472q0 -106 -96 -223q96 -117 96 -243v-162q0 -123 96 -123h96v-143h-96q-256 15 -256 259v124q0 146 -160 236v104q160 104 160 236v413q0 245 256 259h96v-144z"/>
<glyph glyph-name="bar" unicode="|" horiz-adv-x="432" d="M120 1473h192v-1472h-192v1472z"/>
<glyph glyph-name="braceright" unicode="}" horiz-adv-x="752" d="M120 1523h96q256 -15 256 -259v-413q0 -132 160 -236v-104q-160 -90 -160 -236v-125q0 -244 -256 -259h-96v144h96q96 0 96 122v163q0 126 96 243q-96 117 -96 223v471q0 122 -96 122h-96v144z"/>
<glyph glyph-name="asciitilde" unicode="~" horiz-adv-x="1239" d="M1001 1866l118 -125q-122 -132 -179.5 -136t-67.5 -4q-106 0 -245.5 49.5t-200.5 49.5q-122 0 -188 -106l-118 125q122 132 179.5 136t67.5 4q106 0 245.5 -49.5t200.5 -49.5q121 0 188 106z"/>
<glyph glyph-name="exclamdown" unicode="¡"/>
<glyph glyph-name="cent" unicode="¢" horiz-adv-x="1037" d="M571 1106q-134 -45 -223 -191q-43 -91 -43 -187q0 -204 188 -335q38 -22 78 -36v749zM740 1301q89 -5 177 -39v-192h-10q-77 46 -167 54v-786q84 8 177 57v-192q-83 -33 -177 -39v-164h-169v176q-197 43 -344 226q-107 152 -107 329q0 301 272 485q85 51 179 72v186h169 v-173z"/>
<glyph glyph-name="sterling" unicode="£"/>
<glyph glyph-name="currency" unicode="¤"/>
<glyph glyph-name="yen" unicode="¥"/>
<glyph glyph-name="brokenbar" unicode="¦"/>
<glyph glyph-name="section" unicode="§"/>
<glyph glyph-name="dieresis" unicode="¨" horiz-adv-x="714" d="M507 1481q22 0 42.5 -11.5t32.5 -32.5t12 -43q0 -23 -11.5 -43.5t-32 -32t-43.5 -11.5t-43.5 11.5t-32 32t-11.5 43.5q0 22 11.5 43t32.5 32.5t43 11.5zM207 1481q22 0 42.5 -11.5t32.5 -32.5t12 -43q0 -23 -11.5 -43.5t-32 -32t-43.5 -11.5t-43.5 11.5t-32 32 t-11.5 43.5q0 22 11.5 43t32.5 32.5t43 11.5z"/>
<glyph glyph-name="copyright" unicode="©" horiz-adv-x="1352" d="M717 1447q68 0 135 -26v-122h-7q-60 36 -131 36q-143 0 -225 -135q-27 -58 -27 -119q0 -130 119 -213q63 -37 136 -37q63 0 135 38v-123q-65 -25 -140 -25q-177 0 -300 152q-68 97 -68 209q0 192 174 310q90 55 199 55zM203 1076q0 -98 37 -184t101 -149.5t150.5 -100 t185.5 -36.5q97 0 183.5 36.5t150 100t100.5 149.5t37 184t-37 184t-100.5 149.5t-150 99.5t-183.5 36q-99 0 -185.5 -36t-150.5 -99.5t-101 -149.5t-37 -184zM1232 1076q0 -113 -43.5 -212t-119.5 -172.5t-176.5 -116.5t-216.5 -43t-216.5 43t-176.5 116.5t-119.5 172.5 t-43.5 212q0 112 43.5 212.5t119.5 174t176.5 116t216.5 42.5t216.5 -42.5t176.5 -116t119.5 -174t43.5 -212.5z"/>
<glyph glyph-name="ordfeminine" unicode="ª"/>
<glyph glyph-name="guillemotleft" unicode="«"/>
<glyph glyph-name="logicalnot" unicode="¬"/>
<glyph glyph-name="registered" unicode="®" horiz-adv-x="1352" d="M610 1341v-361h18q43 1 85 26q83 55 83 152q0 51 -19 91q-55 92 -145 92h-22zM499 1447h111q94 -2 163 -44q132 -90 132 -245q0 -90 -51 -164q-15 -20 -60 -60l103 -216h-118l-78 169q-43 -9 -78 -9h-13v-159h-111v728zM203 1076q0 -98 37 -184t101 -149.5t150.5 -100 t185.5 -36.5q97 0 183.5 36.5t150 100t100.5 149.5t37 184t-37 184t-100.5 149.5t-150 99.5t-183.5 36q-99 0 -185.5 -36t-150.5 -99.5t-101 -149.5t-37 -184zM1232 1076q0 -113 -43.5 -212t-119.5 -172.5t-176.5 -116.5t-216.5 -43t-216.5 43t-176.5 116.5t-119.5 172.5 t-43.5 212q0 112 43.5 212.5t119.5 174t176.5 116t216.5 42.5t216.5 -42.5t176.5 -116t119.5 -174t43.5 -212.5z"/>
<glyph glyph-name="macron" unicode="¯"/>
<glyph glyph-name="degree" unicode="°"/>
<glyph glyph-name="plusminus" unicode="±"/>
<glyph glyph-name="uni00B2" unicode="²"/>
<glyph glyph-name="uni00B3" unicode="³"/>
<glyph glyph-name="acute" unicode="´" horiz-adv-x="530" d="M225 1635h185v-27l-185 -452h-105v27z"/>
<glyph glyph-name="mu" unicode="µ"/>
<glyph glyph-name="paragraph" unicode="¶"/>
<glyph glyph-name="cedilla" unicode="¸"/>
<glyph glyph-name="uni00B9" unicode="¹"/>
<glyph glyph-name="ordmasculine" unicode="º"/>
<glyph glyph-name="guillemotright" unicode="»"/>
<glyph glyph-name="onequarter" unicode="¼"/>
<glyph glyph-name="onehalf" unicode="½"/>
<glyph glyph-name="threequarters" unicode="¾"/>
<glyph glyph-name="questiondown" unicode="¿"/>
<glyph glyph-name="Agrave" unicode="À"/>
<glyph glyph-name="Aacute" unicode="Á"/>
<glyph glyph-name="Acircumflex" unicode="Â"/>
<glyph glyph-name="Atilde" unicode="Ã"/>
<glyph glyph-name="Adieresis" unicode="Ä" horiz-adv-x="1180" d="M476 468h228l-113 477zM658 1487l402 -1492h-229l-63 236h-356l-63 -236h-229l402 1492h136zM740 1727q22 0 42.5 -11.5t32.5 -32.5t12 -43q0 -23 -11.5 -43.5t-32 -32t-43.5 -11.5t-43.5 11.5t-32 32t-11.5 43.5q0 22 11.5 43t32.5 32.5t43 11.5zM440 1727 q22 0 42.5 -11.5t32.5 -32.5t12 -43q0 -23 -11.5 -43.5t-32 -32t-43.5 -11.5t-43.5 11.5t-32 32t-11.5 43.5q0 22 11.5 43t32.5 32.5t43 11.5z"/>
<glyph glyph-name="Aring" unicode="Å"/>
<glyph glyph-name="AE" unicode="Æ"/>
<glyph glyph-name="Ccedilla" unicode="Ç"/>
<glyph glyph-name="Egrave" unicode="È"/>
<glyph glyph-name="Eacute" unicode="É"/>
<glyph glyph-name="Ecircumflex" unicode="Ê"/>
<glyph glyph-name="Edieresis" unicode="Ë"/>
<glyph glyph-name="Igrave" unicode="Ì"/>
<glyph glyph-name="Iacute" unicode="Í"/>
<glyph glyph-name="Icircumflex" unicode="Î"/>
<glyph glyph-name="Idieresis" unicode="Ï"/>
<glyph glyph-name="Eth" unicode="Ð"/>
<glyph glyph-name="Ntilde" unicode="Ñ"/>
<glyph glyph-name="Ograve" unicode="Ò"/>
<glyph glyph-name="Oacute" unicode="Ó"/>
<glyph glyph-name="Ocircumflex" unicode="Ô"/>
<glyph glyph-name="Otilde" unicode="Õ"/>
<glyph glyph-name="Odieresis" unicode="Ö"/>
<glyph glyph-name="multiply" unicode="×"/>
<glyph glyph-name="Oslash" unicode="Ø"/>
<glyph glyph-name="Ugrave" unicode="Ù"/>
<glyph glyph-name="Uacute" unicode="Ú"/>
<glyph glyph-name="Ucircumflex" unicode="Û"/>
<glyph glyph-name="Udieresis" unicode="Ü"/>
<glyph glyph-name="Yacute" unicode="Ý"/>
<glyph glyph-name="Thorn" unicode="Þ"/>
<glyph glyph-name="germandbls" unicode="ß"/>
<glyph glyph-name="agrave" unicode="à"/>
<glyph glyph-name="aacute" unicode="á"/>
<glyph glyph-name="acircumflex" unicode="â"/>
<glyph glyph-name="atilde" unicode="ã"/>
<glyph glyph-name="adieresis" unicode="ä"/>
<glyph glyph-name="aring" unicode="å"/>
<glyph glyph-name="ae" unicode="æ"/>
<glyph glyph-name="ccedilla" unicode="ç"/>
<glyph glyph-name="egrave" unicode="è"/>
<glyph glyph-name="eacute" unicode="é"/>
<glyph glyph-name="ecircumflex" unicode="ê"/>
<glyph glyph-name="edieresis" unicode="ë"/>
<glyph glyph-name="igrave" unicode="ì"/>
<glyph glyph-name="iacute" unicode="í"/>
<glyph glyph-name="icircumflex" unicode="î"/>
<glyph glyph-name="idieresis" unicode="ï"/>
<glyph glyph-name="eth" unicode="ð"/>
<glyph glyph-name="ntilde" unicode="ñ"/>
<glyph glyph-name="ograve" unicode="ò"/>
<glyph glyph-name="oacute" unicode="ó"/>
<glyph glyph-name="ocircumflex" unicode="ô"/>
<glyph glyph-name="otilde" unicode="õ"/>
<glyph glyph-name="odieresis" unicode="ö"/>
<glyph glyph-name="divide" unicode="÷"/>
<glyph glyph-name="oslash" unicode="ø"/>
<glyph glyph-name="ugrave" unicode="ù"/>
<glyph glyph-name="uacute" unicode="ú"/>
<glyph glyph-name="ucircumflex" unicode="û"/>
<glyph glyph-name="udieresis" unicode="ü"/>
<glyph glyph-name="yacute" unicode="ý"/>
<glyph glyph-name="thorn" unicode="þ"/>
</font>
</defs>
</svg>
